<mxfile host="app.diagrams.net" modified="2021-09-06T09:40:37.223Z" agent="5.0 (Macintosh; Intel Mac OS X 10_15_7) AppleWebKit/605.1.15 (KHTML, like Gecko) Version/14.1.2 Safari/605.1.15" etag="CF9bCF28bDvjx0jR7EHW" version="15.0.6" type="github">
  <diagram id="GR8ITqk0_nQ_17DC2mM3" name="第 1 页">
    <mxGraphModel dx="946" dy="619" grid="1" gridSize="10" guides="1" tooltips="1" connect="1" arrows="1" fold="1" page="1" pageScale="1" pageWidth="827" pageHeight="1169" math="0" shadow="0">
      <root>
        <mxCell id="0" />
        <mxCell id="1" parent="0" />
        <mxCell id="RpOicTaBDRD9k7s_wi3x-8" style="edgeStyle=orthogonalEdgeStyle;rounded=0;orthogonalLoop=1;jettySize=auto;html=1;entryX=0.077;entryY=1.063;entryDx=0;entryDy=0;entryPerimeter=0;" edge="1" parent="1" source="RpOicTaBDRD9k7s_wi3x-1" target="RpOicTaBDRD9k7s_wi3x-6">
          <mxGeometry relative="1" as="geometry" />
        </mxCell>
        <mxCell id="RpOicTaBDRD9k7s_wi3x-9" value="设备连接" style="edgeLabel;html=1;align=center;verticalAlign=middle;resizable=0;points=[];" vertex="1" connectable="0" parent="RpOicTaBDRD9k7s_wi3x-8">
          <mxGeometry x="-0.2215" y="-1" relative="1" as="geometry">
            <mxPoint as="offset" />
          </mxGeometry>
        </mxCell>
        <mxCell id="RpOicTaBDRD9k7s_wi3x-1" value="rat" style="whiteSpace=wrap;html=1;aspect=fixed;" vertex="1" parent="1">
          <mxGeometry x="140" y="630" width="80" height="80" as="geometry" />
        </mxCell>
        <mxCell id="RpOicTaBDRD9k7s_wi3x-11" value="" style="edgeStyle=orthogonalEdgeStyle;rounded=0;orthogonalLoop=1;jettySize=auto;html=1;" edge="1" parent="1" source="RpOicTaBDRD9k7s_wi3x-3" target="RpOicTaBDRD9k7s_wi3x-10">
          <mxGeometry relative="1" as="geometry" />
        </mxCell>
        <mxCell id="RpOicTaBDRD9k7s_wi3x-3" value="FileServer" style="whiteSpace=wrap;html=1;aspect=fixed;" vertex="1" parent="1">
          <mxGeometry x="340" y="510" width="80" height="80" as="geometry" />
        </mxCell>
        <mxCell id="RpOicTaBDRD9k7s_wi3x-4" value="MediaServer" style="whiteSpace=wrap;html=1;aspect=fixed;" vertex="1" parent="1">
          <mxGeometry x="460" y="510" width="80" height="80" as="geometry" />
        </mxCell>
        <mxCell id="RpOicTaBDRD9k7s_wi3x-5" value="OCR" style="whiteSpace=wrap;html=1;aspect=fixed;" vertex="1" parent="1">
          <mxGeometry x="580" y="510" width="80" height="80" as="geometry" />
        </mxCell>
        <mxCell id="RpOicTaBDRD9k7s_wi3x-6" value="" style="rounded=1;whiteSpace=wrap;html=1;" vertex="1" parent="1">
          <mxGeometry x="140" y="350" width="520" height="80" as="geometry" />
        </mxCell>
        <mxCell id="RpOicTaBDRD9k7s_wi3x-10" value="" style="rhombus;whiteSpace=wrap;html=1;" vertex="1" parent="1">
          <mxGeometry x="340" y="670" width="80" height="80" as="geometry" />
        </mxCell>
      </root>
    </mxGraphModel>
  </diagram>
</mxfile>
